<svg xmlns="http://www.w3.org/2000/svg" xmlns:xlink="http://www.w3.org/1999/xlink" width="91" zoomAndPan="magnify" viewBox="0 0 68.25 54.749999" height="73" preserveAspectRatio="xMidYMid meet" version="1.0"><defs><clipPath id="6912274d8f"><path d="M 0 0.175781 L 67.507812 0.175781 L 67.507812 54.328125 L 0 54.328125 Z M 0 0.175781 " clip-rule="nonzero"/></clipPath><clipPath id="5e0942b774"><path d="M 45.960938 23.378906 L 49.671875 23.378906 L 49.671875 27.089844 L 45.960938 27.089844 Z M 45.960938 23.378906 " clip-rule="nonzero"/></clipPath><clipPath id="73ebbd8cf3"><path d="M 0.960938 0.378906 L 4.671875 0.378906 L 4.671875 4.089844 L 0.960938 4.089844 Z M 0.960938 0.378906 " clip-rule="nonzero"/></clipPath><clipPath id="1ac7bb36e4"><rect x="0" width="5" y="0" height="5"/></clipPath><clipPath id="6faee2d445"><path d="M 6.429688 26.109375 L 11.066406 26.109375 L 11.066406 30.316406 L 6.429688 30.316406 Z M 6.429688 26.109375 " clip-rule="nonzero"/></clipPath></defs><g clip-path="url(#6912274d8f)"><path fill="#ffffff" d="M 0 0.175781 L 67.507812 0.175781 L 67.507812 54.328125 L 0 54.328125 Z M 0 0.175781 " fill-opacity="1" fill-rule="nonzero"/></g><g clip-path="url(#5e0942b774)"><g transform="matrix(1, 0, 0, 1, 45, 23)"><g clip-path="url(#1ac7bb36e4)"><g clip-path="url(#73ebbd8cf3)"><path fill="#005ded" d="M 0.960938 0.378906 L 4.671875 0.378906 L 4.671875 4.089844 L 0.960938 4.089844 Z M 0.960938 0.378906 " fill-opacity="1" fill-rule="nonzero"/></g></g></g></g><g clip-path="url(#6faee2d445)"><path fill="#2c7fff" d="M 6.429688 26.109375 L 11.0625 26.109375 L 11.0625 30.316406 L 6.429688 30.316406 Z M 6.429688 26.109375 " fill-opacity="1" fill-rule="nonzero"/></g><path fill="#2c7fff" d="M 18.199219 37.859375 C 15.679688 38.15625 13.539062 37.984375 11.773438 37.34375 C 10.015625 36.703125 8.640625 35.679688 7.644531 34.261719 C 6.648438 32.839844 6.035156 31.121094 5.792969 29.101562 C 5.523438 26.847656 5.753906 24.828125 6.488281 23.046875 C 7.207031 21.257812 8.382812 19.800781 10.011719 18.667969 C 11.648438 17.53125 13.695312 16.816406 16.152344 16.535156 C 18.453125 16.261719 20.273438 16.511719 21.617188 17.28125 C 22.957031 18.054688 23.722656 19.234375 23.914062 20.824219 C 24.042969 21.988281 23.824219 22.949219 23.257812 23.707031 C 22.695312 24.46875 21.8125 24.917969 20.605469 25.058594 C 19.925781 25.132812 19.332031 25.109375 18.824219 24.988281 C 18.3125 24.875 17.800781 24.757812 17.292969 24.652344 C 16.78125 24.542969 16.199219 24.527344 15.546875 24.597656 C 14.988281 24.667969 14.480469 24.820312 14.015625 25.042969 C 13.5625 25.257812 13.214844 25.585938 12.96875 26.019531 C 12.726562 26.449219 12.652344 27.027344 12.734375 27.75 C 12.84375 28.664062 13.199219 29.289062 13.804688 29.617188 C 14.410156 29.949219 15.179688 30.0625 16.117188 29.957031 C 16.589844 29.898438 17.117188 29.796875 17.703125 29.652344 C 18.28125 29.511719 18.859375 29.382812 19.429688 29.261719 C 20.007812 29.132812 20.503906 29.042969 20.925781 28.996094 C 21.957031 28.863281 22.816406 29.054688 23.503906 29.5625 C 24.191406 30.0625 24.601562 30.898438 24.734375 32.074219 C 24.910156 33.582031 24.476562 34.851562 23.433594 35.882812 C 22.386719 36.914062 20.644531 37.574219 18.199219 37.859375 Z M 18.199219 37.859375 " fill-opacity="1" fill-rule="nonzero"/><path fill="#2c7fff" d="M 35.003906 37.058594 C 33.921875 37.082031 33.101562 36.871094 32.546875 36.4375 C 31.984375 35.984375 31.699219 35.339844 31.691406 34.496094 C 31.679688 34.03125 31.761719 33.542969 31.941406 33.019531 C 32.121094 32.484375 32.355469 31.96875 32.652344 31.46875 L 32.832031 31.859375 C 32.296875 32.101562 31.636719 32.296875 30.855469 32.449219 C 30.070312 32.605469 29.28125 32.691406 28.488281 32.714844 C 27.277344 32.742188 26.375 32.457031 25.78125 31.859375 C 25.199219 31.269531 24.898438 30.398438 24.875 29.242188 C 24.867188 28.472656 24.980469 27.570312 25.230469 26.539062 C 25.488281 25.503906 25.835938 24.445312 26.261719 23.351562 C 26.699219 22.261719 27.179688 21.269531 27.703125 20.378906 C 28.640625 18.789062 29.667969 17.566406 30.785156 16.710938 C 31.910156 15.847656 33.3125 15.402344 34.984375 15.378906 C 36.714844 15.332031 37.949219 15.699219 38.6875 16.480469 C 39.433594 17.253906 39.816406 18.382812 39.84375 19.863281 C 39.867188 20.800781 39.777344 21.886719 39.578125 23.121094 C 39.386719 24.359375 39.101562 25.59375 38.722656 26.839844 L 38.3125 26.539062 C 38.550781 26.421875 38.800781 26.339844 39.0625 26.289062 C 39.332031 26.230469 39.570312 26.199219 39.773438 26.199219 C 41.589844 26.164062 42.515625 27.097656 42.550781 28.996094 C 42.574219 29.96875 42.308594 30.71875 41.765625 31.238281 C 41.234375 31.75 40.507812 32.011719 39.597656 32.019531 C 39.296875 32.035156 39.007812 32.019531 38.722656 31.984375 C 38.449219 31.941406 38.210938 31.875 38.011719 31.789062 L 38.242188 31.648438 C 38.394531 31.894531 38.519531 32.226562 38.617188 32.625 C 38.710938 33.019531 38.761719 33.40625 38.777344 33.785156 C 38.800781 34.828125 38.484375 35.628906 37.832031 36.1875 C 37.179688 36.742188 36.234375 37.03125 35.003906 37.058594 Z M 30.695312 27.195312 C 31.132812 27.1875 31.523438 27.066406 31.871094 26.839844 C 32.226562 26.605469 32.527344 26.265625 32.777344 25.828125 C 33.035156 25.375 33.226562 24.855469 33.347656 24.257812 C 33.476562 23.65625 33.535156 22.996094 33.527344 22.285156 C 33.511719 21.761719 33.425781 21.386719 33.277344 21.144531 C 33.121094 20.910156 32.921875 20.789062 32.671875 20.789062 C 32.253906 20.800781 31.851562 20.957031 31.460938 21.25 C 31.078125 21.550781 30.738281 21.941406 30.445312 22.425781 C 30.160156 22.902344 29.933594 23.421875 29.769531 23.992188 C 29.601562 24.554688 29.523438 25.097656 29.539062 25.628906 C 29.546875 26.191406 29.664062 26.589844 29.875 26.839844 C 30.089844 27.082031 30.363281 27.195312 30.695312 27.195312 Z M 30.695312 27.195312 " fill-opacity="1" fill-rule="nonzero"/><path fill="#2c7fff" d="M 45.746094 36.902344 C 45.09375 36.851562 44.558594 36.660156 44.144531 36.332031 C 43.738281 36.011719 43.472656 35.546875 43.34375 34.941406 C 43.210938 34.328125 43.132812 33.339844 43.113281 31.988281 C 43.085938 30.625 43.132812 29.148438 43.253906 27.554688 C 43.382812 25.871094 43.546875 24.226562 43.753906 22.625 C 43.953125 21.011719 44.21875 19.605469 44.554688 18.40625 C 44.847656 17.316406 45.257812 16.519531 45.78125 16.019531 C 46.304688 15.523438 47.046875 15.308594 48.007812 15.378906 C 48.777344 15.441406 49.398438 15.65625 49.875 16.019531 C 50.363281 16.375 50.703125 16.9375 50.910156 17.695312 C 51.109375 18.453125 51.164062 19.453125 51.070312 20.683594 C 51.054688 20.980469 51.035156 21.300781 50.996094 21.644531 C 50.960938 21.980469 50.910156 22.335938 50.835938 22.714844 L 50.960938 22.714844 C 51.996094 20.828125 52.992188 19.375 53.953125 18.351562 C 54.921875 17.320312 55.847656 16.621094 56.730469 16.25 C 57.621094 15.875 58.4375 15.707031 59.1875 15.753906 C 60.113281 15.824219 60.796875 16.199219 61.25 16.875 C 61.714844 17.542969 61.910156 18.34375 61.839844 19.277344 C 61.742188 20.574219 61.082031 21.765625 59.863281 22.855469 C 58.652344 23.9375 56.710938 25.058594 54.042969 26.21875 L 54.328125 25.472656 C 56.460938 27.125 57.984375 28.65625 58.902344 30.066406 C 59.828125 31.480469 60.238281 32.921875 60.128906 34.390625 C 60.058594 35.367188 59.695312 36.117188 59.042969 36.652344 C 58.402344 37.1875 57.523438 37.417969 56.410156 37.347656 C 55.457031 37.273438 54.585938 36.925781 53.792969 36.3125 C 53.007812 35.707031 52.316406 34.753906 51.710938 33.449219 C 51.113281 32.144531 50.625 30.414062 50.234375 28.25 L 50.109375 28.230469 C 50.117188 28.496094 50.113281 28.761719 50.089844 29.03125 C 50.078125 29.296875 50.058594 29.558594 50.035156 29.816406 C 49.84375 32.441406 49.4375 34.300781 48.808594 35.40625 C 48.175781 36.507812 47.15625 37.007812 45.746094 36.902344 Z M 45.746094 36.902344 " fill-opacity="1" fill-rule="nonzero"/></svg>