<svg xmlns="http://www.w3.org/2000/svg" xmlns:xlink="http://www.w3.org/1999/xlink" width="56" zoomAndPan="magnify" viewBox="0 0 42 60.75" height="81" preserveAspectRatio="xMidYMid meet" version="1.0"><defs><clipPath id="b934ff0b9e"><path d="M 12.800781 32.804688 L 16.535156 32.804688 L 16.535156 36.539062 L 12.800781 36.539062 Z M 12.800781 32.804688 " clip-rule="nonzero"/></clipPath><clipPath id="b5d7f853a0"><path d="M 0.800781 0.804688 L 4.535156 0.804688 L 4.535156 4.539062 L 0.800781 4.539062 Z M 0.800781 0.804688 " clip-rule="nonzero"/></clipPath><clipPath id="8e9de33e7f"><rect x="0" width="5" y="0" height="5"/></clipPath><clipPath id="23c91cd851"><path d="M 2 3 L 39 3 L 39 58 L 2 58 Z M 2 3 " clip-rule="nonzero"/></clipPath><clipPath id="c421f6a7b9"><path d="M 11.78125 0 L 41.695312 6.550781 L 30.035156 59.816406 L 0.117188 53.265625 Z M 11.78125 0 " clip-rule="nonzero"/></clipPath><clipPath id="bc53507846"><path d="M 11.78125 0 L 41.695312 6.550781 L 30.035156 59.816406 L 0.117188 53.265625 Z M 11.78125 0 " clip-rule="nonzero"/></clipPath><clipPath id="85032add9f"><path d="M 6 23 L 27 23 L 27 54 L 6 54 Z M 6 23 " clip-rule="nonzero"/></clipPath><clipPath id="230edcc53c"><path d="M 11.78125 0 L 41.695312 6.550781 L 30.035156 59.816406 L 0.117188 53.265625 Z M 11.78125 0 " clip-rule="nonzero"/></clipPath><clipPath id="42ab6fbe45"><path d="M 11.78125 0 L 41.695312 6.550781 L 30.035156 59.816406 L 0.117188 53.265625 Z M 11.78125 0 " clip-rule="nonzero"/></clipPath><clipPath id="ad17d8d433"><path d="M 18 6 L 37 6 L 37 28 L 18 28 Z M 18 6 " clip-rule="nonzero"/></clipPath><clipPath id="7cfc6f730f"><path d="M 11.78125 0 L 41.695312 6.550781 L 30.035156 59.816406 L 0.117188 53.265625 Z M 11.78125 0 " clip-rule="nonzero"/></clipPath><clipPath id="44a6610b90"><path d="M 11.78125 0 L 41.695312 6.550781 L 30.035156 59.816406 L 0.117188 53.265625 Z M 11.78125 0 " clip-rule="nonzero"/></clipPath></defs><g clip-path="url(#b934ff0b9e)"><g transform="matrix(1, 0, 0, 1, 12, 32)"><g clip-path="url(#8e9de33e7f)"><g clip-path="url(#b5d7f853a0)"><path fill="#005ded" d="M 0.800781 0.804688 L 4.535156 0.804688 L 4.535156 4.539062 L 0.800781 4.539062 Z M 0.800781 0.804688 " fill-opacity="1" fill-rule="nonzero"/></g></g></g></g><g clip-path="url(#23c91cd851)"><g clip-path="url(#c421f6a7b9)"><g clip-path="url(#bc53507846)"><path fill="#ffffff" d="M 11.207031 46.679688 L 16.566406 54.480469 L 19.953125 57.761719 L 24.796875 53.59375 L 23.859375 47.199219 L 25.921875 41.769531 L 30.039062 40.253906 L 31.574219 34.914062 L 27.890625 31.558594 L 33.585938 29.460938 L 34.203125 23.433594 L 35.347656 20.15625 L 38.996094 18.1875 L 37.378906 11.804688 L 32.742188 11.699219 L 31.140625 6.894531 L 27.921875 3.535156 L 22.320312 5.007812 L 20.089844 12.511719 L 15.125 17.539062 L 14.96875 22.03125 L 11.980469 27.660156 L 9.566406 35.226562 L 2.921875 40.457031 L 4.785156 45.433594 Z M 11.207031 46.679688 " fill-opacity="1" fill-rule="nonzero"/></g></g></g><g clip-path="url(#85032add9f)"><g clip-path="url(#230edcc53c)"><g clip-path="url(#42ab6fbe45)"><path fill="#ffd21e" d="M 7.503906 41.425781 C 8.296875 41.277344 9.074219 41.625 9.832031 41.816406 C 10.546875 41.96875 11.285156 41.992188 11.996094 42.164062 C 12.21875 42.21875 12.425781 42.300781 12.625 42.402344 C 12.605469 42.566406 12.675781 42.699219 12.894531 42.675781 C 12.933594 42.660156 12.972656 42.644531 13.011719 42.625 C 13.324219 42.824219 13.621094 43.058594 13.921875 43.277344 C 15.023438 43.921875 16.070312 44.808594 16.535156 46.027344 C 17.089844 47.210938 17.210938 48.644531 18.132812 49.628906 C 19.101562 50.699219 19.308594 52.289062 20.175781 53.414062 C 20.65625 53.734375 21.273438 53.117188 21.175781 52.609375 C 20.699219 51.605469 19.9375 50.730469 19.46875 49.707031 C 19.417969 48.046875 19.878906 46.414062 20.105469 44.78125 C 20.363281 43.703125 20.929688 42.753906 21.304688 41.722656 C 21.910156 39.675781 22.984375 38.914062 24.648438 37.710938 C 25.539062 38.128906 26.808594 37.375 26.390625 36.347656 C 25.953125 35.851562 24.792969 35.996094 24.144531 35.785156 C 22.90625 35.542969 21.535156 35.484375 20.515625 34.664062 C 19.472656 33.671875 18.59375 32.460938 17.941406 31.175781 C 17.496094 30.089844 17.917969 28.855469 17.691406 27.726562 C 17.648438 27.324219 17.824219 26.835938 17.871094 26.417969 C 17.910156 26.117188 17.792969 25.800781 17.90625 25.507812 C 18.753906 25.058594 17.722656 24.085938 17.414062 25.402344 C 17.75 22.742188 15.433594 24.054688 16.085938 25.1875 C 16.273438 26.878906 15.554688 28.472656 15.183594 30.085938 C 14.933594 31.960938 14.265625 33.722656 13.53125 35.453125 C 13.039062 36.351562 12.195312 36.9375 11.339844 37.453125 C 10.492188 38.082031 9.828125 38.890625 9.042969 39.582031 C 8.445312 40.054688 7.660156 39.988281 7.007812 40.320312 C 6.261719 40.773438 6.601562 41.871094 7.5 41.429688 Z M 14.285156 41.601562 C 14.238281 41.585938 14.1875 41.570312 14.136719 41.558594 C 14.21875 41.441406 14.292969 41.324219 14.375 41.207031 C 14.5 41.054688 14.648438 40.921875 14.789062 40.785156 C 14.980469 40.582031 15.074219 40.320312 15.253906 40.109375 C 14.964844 40.625 14.605469 41.105469 14.285156 41.601562 Z M 16.296875 43.351562 C 16.269531 43.4375 16.238281 43.527344 16.210938 43.617188 C 16.09375 43.394531 15.976562 43.167969 15.859375 42.945312 C 15.640625 42.429688 15.292969 42.089844 14.871094 41.855469 C 14.902344 41.8125 14.929688 41.769531 14.960938 41.722656 C 15.125 41.414062 15.257812 41.078125 15.484375 40.804688 C 15.40625 41.03125 15.316406 41.257812 15.269531 41.492188 C 15.242188 41.574219 15.273438 41.648438 15.292969 41.726562 C 15.289062 41.792969 15.320312 41.847656 15.378906 41.878906 C 15.449219 41.960938 15.582031 41.953125 15.660156 41.882812 C 15.808594 41.738281 15.960938 41.589844 16.113281 41.449219 C 16.191406 41.34375 16.242188 41.21875 16.320312 41.113281 C 16.660156 40.921875 16.847656 40.566406 17.109375 40.289062 C 17.269531 40.058594 17.464844 39.859375 17.644531 39.644531 C 17.847656 39.339844 18.0625 39.042969 18.292969 38.757812 C 18.226562 38.953125 18.210938 39.164062 18.183594 39.367188 C 17.945312 39.773438 17.792969 40.167969 17.550781 40.585938 C 17.117188 41.503906 16.65625 42.40625 16.300781 43.351562 Z M 17.816406 40.871094 C 17.746094 41.222656 17.664062 41.578125 17.625 41.9375 C 17.550781 42.183594 17.425781 42.492188 17.628906 42.707031 C 17.429688 42.933594 17.183594 43.105469 16.984375 43.328125 C 16.847656 43.484375 16.757812 43.695312 16.578125 43.808594 C 17.007812 42.835938 17.355469 41.828125 17.816406 40.871094 Z M 18.351562 47.023438 C 18.285156 46.914062 18.203125 46.8125 18.125 46.710938 C 17.488281 45.972656 17.007812 45.140625 16.558594 44.289062 C 16.734375 44.191406 16.851562 44.015625 17.042969 43.933594 C 17.347656 43.757812 17.539062 43.492188 17.75 43.222656 C 17.574219 43.613281 17.355469 43.980469 17.15625 44.359375 C 17.082031 44.574219 16.917969 45.027344 17.207031 45.136719 C 17.742188 45.292969 17.871094 44.617188 18.226562 44.367188 C 18.53125 44.113281 18.769531 43.75 18.921875 43.382812 C 19.058594 43.070312 19.296875 42.851562 19.535156 42.621094 C 19.539062 42.621094 19.539062 42.621094 19.542969 42.617188 C 18.964844 44.023438 18.636719 45.550781 18.351562 47.023438 Z M 19.976562 41.054688 C 19.777344 41.382812 19.519531 41.671875 19.3125 41.992188 C 19.128906 42.367188 19.011719 42.792969 18.695312 43.078125 C 18.859375 42.792969 19.007812 42.503906 19.121094 42.191406 C 19.289062 41.71875 19.519531 41.277344 19.796875 40.863281 C 20.015625 40.65625 20.1875 40.414062 20.367188 40.175781 C 20.257812 40.480469 20.128906 40.773438 19.976562 41.058594 Z M 20.574219 35.957031 C 20.609375 35.898438 20.640625 35.832031 20.636719 35.765625 C 21.46875 36.246094 22.238281 36.835938 23.125 37.226562 C 22.667969 37.671875 22.308594 38.1875 21.964844 38.71875 C 22.039062 38.4375 22.019531 38.210938 21.796875 38.132812 C 21.882812 37.984375 22 37.84375 22.019531 37.671875 C 22.039062 37.507812 21.878906 37.34375 21.714844 37.410156 C 21.53125 37.480469 21.402344 37.640625 21.25 37.757812 C 20.960938 37.988281 20.777344 38.300781 20.585938 38.609375 C 20.101562 39.121094 19.835938 39.777344 19.464844 40.367188 C 19.332031 40.636719 19.101562 40.828125 18.902344 41.046875 C 18.644531 41.335938 18.390625 41.632812 18.15625 41.941406 C 18.164062 41.527344 18.328125 41.121094 18.414062 40.714844 C 18.484375 40.414062 18.484375 40.105469 18.578125 39.808594 C 18.683594 39.523438 18.792969 39.242188 18.894531 38.957031 C 18.929688 38.664062 19.070312 38.417969 19.246094 38.183594 C 19.417969 37.945312 19.527344 37.671875 19.664062 37.410156 C 19.851562 37.179688 19.984375 36.917969 20.125 36.65625 C 20.25 36.5 20.425781 36.382812 20.511719 36.199219 C 20.535156 36.121094 20.546875 36.039062 20.574219 35.957031 Z M 19.132812 37.75 C 19.164062 37.632812 19.28125 37.546875 19.34375 37.445312 C 19.429688 37.320312 19.503906 37.1875 19.585938 37.0625 C 19.472656 37.316406 19.289062 37.523438 19.132812 37.75 Z M 18.4375 35.214844 C 18.476562 35.15625 18.523438 35.113281 18.558594 35.054688 C 18.621094 34.921875 18.554688 34.753906 18.394531 34.851562 C 18.132812 34.878906 18.046875 35.171875 17.882812 35.332031 C 17.992188 34.890625 18.105469 34.453125 18.207031 34.007812 C 18.679688 34.636719 19.324219 35.136719 20.066406 35.464844 C 20.183594 35.519531 20.300781 35.582031 20.417969 35.644531 C 20.328125 35.710938 20.25 35.863281 20.199219 35.9375 C 19.875 36.28125 19.597656 36.671875 19.273438 37.019531 C 19.304688 36.863281 19.339844 36.707031 19.363281 36.546875 C 19.429688 36.339844 19.460938 36.097656 19.328125 35.910156 C 19.234375 35.738281 19.019531 35.707031 18.851562 35.773438 C 18.722656 35.800781 18.621094 35.808594 18.484375 35.855469 C 18 36.050781 17.765625 36.546875 17.445312 36.921875 C 17.792969 36.363281 18.15625 35.808594 18.4375 35.214844 Z M 17.824219 35.800781 C 17.964844 35.609375 18.058594 35.371094 18.265625 35.238281 C 18.066406 35.484375 17.882812 35.742188 17.714844 36.007812 C 17.726562 35.929688 17.78125 35.867188 17.824219 35.800781 Z M 17.050781 38.355469 C 17.292969 37.964844 17.535156 37.617188 17.835938 37.25 C 18.101562 36.945312 18.480469 36.773438 18.746094 36.46875 C 18.820312 36.679688 18.738281 36.902344 18.707031 37.117188 C 18.652344 37.457031 18.554688 37.785156 18.472656 38.113281 C 18.121094 38.632812 17.6875 39.101562 17.300781 39.597656 C 17.140625 39.871094 16.90625 40.082031 16.730469 40.34375 C 16.570312 40.5 16.410156 40.660156 16.300781 40.859375 C 16.238281 41.097656 15.972656 41.140625 15.835938 41.320312 C 15.753906 41.398438 15.683594 41.503906 15.5625 41.511719 C 15.683594 41.054688 15.847656 40.605469 15.992188 40.15625 C 16.125 40 16.191406 39.804688 16.253906 39.609375 C 16.328125 39.367188 16.523438 39.191406 16.652344 38.972656 C 16.785156 38.769531 16.917969 38.5625 17.050781 38.355469 Z M 17.78125 33.507812 C 17.769531 33.945312 17.59375 34.371094 17.5 34.800781 C 17.316406 35.539062 17.011719 36.246094 16.753906 36.964844 C 16.65625 37.285156 16.59375 37.621094 16.472656 37.9375 C 16.199219 38.230469 16.042969 38.589844 15.851562 38.933594 C 15.511719 39.320312 15.257812 39.777344 14.933594 40.183594 C 14.824219 40.285156 14.707031 40.382812 14.625 40.515625 C 14.539062 40.621094 14.480469 40.742188 14.417969 40.863281 C 14.253906 41.09375 14.039062 41.277344 13.835938 41.476562 C 13.621094 41.425781 13.398438 41.386719 13.179688 41.351562 C 13.203125 41.292969 13.222656 41.234375 13.246094 41.175781 C 13.484375 40.652344 13.675781 40.101562 13.824219 39.539062 C 13.996094 39.109375 14.222656 38.695312 14.394531 38.257812 C 14.699219 37.941406 14.839844 37.496094 14.972656 37.085938 C 15.234375 36.644531 15.609375 36.285156 15.894531 35.859375 C 16.191406 35.390625 16.457031 34.90625 16.828125 34.488281 C 17.023438 34.199219 17.265625 33.949219 17.53125 33.71875 C 17.609375 33.644531 17.675781 33.539062 17.78125 33.507812 Z M 13.648438 36.757812 C 14.65625 35.417969 15.464844 33.960938 15.753906 32.289062 C 16.203125 30.976562 16.5625 29.648438 16.828125 28.289062 C 16.699219 29.605469 17.296875 30.886719 17.429688 32.207031 C 17.480469 32.507812 17.566406 32.796875 17.675781 33.070312 C 17.527344 33.144531 17.386719 33.238281 17.253906 33.328125 C 17.03125 33.511719 16.863281 33.753906 16.660156 33.960938 C 16.773438 33.734375 16.886719 33.507812 17.003906 33.285156 C 17.035156 33.230469 17.066406 33.179688 17.097656 33.125 C 17.191406 33.175781 17.304688 33.046875 17.265625 32.953125 C 17.265625 32.949219 17.269531 32.941406 17.273438 32.9375 C 17.3125 32.882812 17.308594 32.800781 17.261719 32.765625 C 17.289062 32.515625 16.960938 32.460938 16.789062 32.574219 C 16.65625 32.65625 16.59375 32.796875 16.492188 32.90625 C 15.996094 33.449219 15.550781 34.042969 15.183594 34.679688 C 14.820312 35.164062 14.511719 35.683594 14.203125 36.207031 C 13.875 36.683594 13.492188 37.128906 13.160156 37.605469 C 12.640625 38.503906 12.136719 39.421875 11.480469 40.230469 C 11.355469 40.371094 11.199219 40.644531 11.414062 40.78125 C 11.5625 40.855469 11.726562 40.738281 11.808594 40.621094 C 12.101562 40.109375 12.449219 39.632812 12.78125 39.148438 C 13.113281 38.679688 13.503906 38.246094 13.800781 37.753906 C 14.082031 37.289062 14.296875 36.792969 14.59375 36.335938 C 15.152344 35.535156 15.714844 34.660156 16.300781 33.867188 C 15.992188 34.535156 15.605469 35.160156 15.238281 35.796875 C 15.050781 36.171875 14.886719 36.554688 14.636719 36.890625 C 14.292969 37.242188 13.914062 37.609375 13.785156 38.09375 C 13.433594 38.5625 13.148438 39.078125 12.828125 39.566406 C 12.742188 39.773438 12.589844 39.949219 12.519531 40.160156 C 12.460938 40.34375 12.652344 40.492188 12.820312 40.398438 C 12.914062 40.355469 12.980469 40.28125 13.027344 40.191406 C 13.335938 39.851562 13.578125 39.472656 13.84375 39.101562 C 13.628906 39.726562 13.230469 40.265625 13.066406 40.914062 C 13.019531 41.046875 12.976562 41.179688 12.933594 41.3125 C 12.753906 41.285156 12.574219 41.257812 12.402344 41.230469 C 11.328125 41.007812 10.320312 40.558594 9.234375 40.390625 C 11.390625 39.785156 12.570312 38.726562 13.648438 36.757812 Z M 13.648438 36.757812 " fill-opacity="1" fill-rule="nonzero"/></g></g></g><g clip-path="url(#ad17d8d433)"><g clip-path="url(#7cfc6f730f)"><g clip-path="url(#44a6610b90)"><path fill="#ffd21e" d="M 23.855469 17.734375 C 23.851562 17.863281 23.898438 18 24.035156 18.039062 C 24.085938 18.074219 24.148438 18.109375 24.214844 18.09375 C 24.332031 18.070312 24.429688 18.007812 24.539062 17.960938 C 24.554688 17.957031 24.570312 17.957031 24.585938 17.953125 C 25.488281 18.644531 26.261719 19.691406 27.070312 20.542969 C 27.832031 21.769531 28.367188 23.128906 28.90625 24.464844 C 28.925781 25.460938 29.097656 26.742188 29.914062 27.414062 C 30.832031 27.660156 31.09375 26.574219 30.65625 25.933594 C 30.691406 25.21875 30.300781 24.566406 30.417969 23.867188 C 30.730469 21.765625 31.726562 19.890625 32.285156 17.847656 C 32.546875 17.285156 33.070312 16.699219 33.714844 16.648438 C 34.625 16.628906 36.460938 16.457031 36.050781 15.136719 C 35.484375 14.582031 34.203125 14.917969 33.570312 15.28125 C 33.019531 15.328125 32.464844 15.402344 31.910156 15.378906 C 30.707031 15.28125 29.84375 14.199219 29.164062 13.136719 C 29.222656 13.046875 29.273438 12.953125 29.308594 12.851562 C 29.382812 12.535156 29.085938 12.527344 28.828125 12.59375 C 28.71875 12.40625 28.609375 12.226562 28.507812 12.0625 C 28.136719 11.292969 28.320312 10.417969 28.375 9.605469 C 28.214844 8.753906 28.550781 7.957031 28.632812 7.125 C 29.273438 7.21875 29.207031 6.082031 28.566406 6.457031 C 28.371094 6.5625 28.285156 6.804688 28.238281 7.007812 C 28.117188 7.304688 27.886719 7.550781 27.804688 7.863281 C 27.726562 8.742188 27.382812 9.609375 27.558594 10.492188 C 27.851562 11.375 27.859375 12.332031 28.117188 13.21875 C 28.011719 13.390625 27.914062 13.570312 27.820312 13.746094 C 27.703125 13.917969 27.558594 14.082031 27.433594 14.25 C 27.117188 14.65625 26.851562 15.097656 26.636719 15.566406 C 26.472656 15.691406 26.3125 15.820312 26.167969 15.96875 C 25.886719 16.214844 25.722656 16.554688 25.480469 16.835938 C 25.191406 16.742188 24.859375 16.65625 24.472656 16.585938 C 24.699219 15.925781 25.070312 15.324219 25.324219 14.671875 C 25.535156 14.230469 25.785156 13.816406 25.941406 13.347656 C 26.164062 13.101562 26.332031 12.816406 26.507812 12.535156 C 26.679688 12.375 26.761719 12.15625 26.894531 11.964844 C 27.066406 11.8125 27.273438 11.6875 27.402344 11.492188 C 27.4375 11.507812 27.472656 11.523438 27.511719 11.527344 C 27.550781 11.691406 27.546875 11.863281 27.539062 12.03125 C 27.507812 12.078125 27.496094 12.128906 27.515625 12.183594 C 27.550781 12.28125 27.675781 12.21875 27.703125 12.152344 C 27.730469 12.09375 27.734375 12.046875 27.703125 11.996094 C 27.710938 11.8125 27.765625 11.628906 27.773438 11.445312 C 27.765625 11.359375 27.714844 11.339844 27.683594 11.273438 C 27.601562 11.164062 27.433594 11.253906 27.371094 11.339844 C 27.300781 11.378906 27.226562 11.390625 27.15625 11.4375 C 27 11.523438 26.902344 11.675781 26.816406 11.828125 C 26.695312 11.945312 26.5625 12.050781 26.445312 12.171875 C 26.21875 12.539062 25.933594 12.871094 25.800781 13.285156 C 25.515625 13.679688 25.265625 14.089844 25.078125 14.539062 C 24.847656 14.941406 24.683594 15.363281 24.550781 15.808594 C 24.472656 16.0625 24.375 16.304688 24.273438 16.550781 C 23.726562 16.457031 23.078125 16.386719 22.304688 16.332031 C 25.597656 14.367188 27.242188 11.035156 27.253906 7.230469 C 27.148438 6.582031 26.332031 6.546875 25.917969 6.929688 C 25.457031 7.273438 25.359375 7.867188 25.320312 8.40625 C 24.785156 13.546875 26.757812 11.582031 22.167969 15.242188 C 21.253906 15.992188 20.257812 16.570312 19.183594 17.039062 C 18.476562 17.21875 17.886719 18.511719 18.839844 18.738281 C 19.710938 18.648438 20.433594 17.925781 21.210938 17.542969 C 22.261719 17.058594 23.128906 17.136719 23.890625 17.511719 C 23.871094 17.582031 23.855469 17.65625 23.859375 17.734375 Z M 27.15625 18.03125 C 27.078125 17.914062 26.992188 17.804688 26.898438 17.703125 C 27.121094 17.582031 27.308594 17.402344 27.503906 17.238281 C 27.386719 17.5 27.273438 17.765625 27.160156 18.03125 Z M 28.003906 19.730469 C 27.949219 19.613281 27.902344 19.496094 27.851562 19.386719 C 27.992188 19.292969 28.117188 19.195312 28.207031 19.128906 C 28.109375 19.304688 28.007812 19.523438 28.003906 19.730469 Z M 28.167969 20.105469 C 28.316406 20.207031 28.53125 20.203125 28.683594 20.105469 C 28.847656 19.992188 28.960938 19.816406 29.089844 19.664062 C 29.421875 19.402344 29.816406 19.210938 30.082031 18.878906 C 29.613281 19.742188 29.257812 20.660156 28.875 21.5625 C 28.585938 21.027344 28.359375 20.542969 28.167969 20.109375 Z M 29.617188 22.15625 C 29.570312 22.082031 29.488281 22.027344 29.363281 22.011719 C 29.679688 21.242188 30.023438 20.492188 30.359375 19.734375 C 30.078125 20.527344 29.898438 21.359375 29.617188 22.15625 Z M 31.539062 17.203125 C 31.613281 17.089844 31.683594 16.980469 31.757812 16.871094 C 31.894531 16.761719 32.007812 16.613281 32.023438 16.433594 C 32.023438 16.394531 32.019531 16.363281 32.015625 16.332031 C 32.132812 16.378906 32.25 16.425781 32.367188 16.476562 C 31.921875 17.191406 31.359375 17.832031 30.921875 18.546875 C 31.140625 18.105469 31.34375 17.65625 31.539062 17.203125 Z M 30.585938 16.640625 C 30.835938 16.507812 31.089844 16.265625 31.09375 15.976562 C 31.226562 16.03125 31.355469 16.078125 31.488281 16.128906 C 31.382812 16.1875 31.289062 16.28125 31.234375 16.398438 C 31.199219 16.484375 31.152344 16.570312 31.105469 16.652344 C 30.644531 17.246094 30.140625 17.800781 29.617188 18.335938 C 29.765625 17.953125 29.894531 17.558594 30.09375 17.195312 C 30.261719 17.011719 30.414062 16.820312 30.585938 16.640625 Z M 29.496094 15.363281 C 29.542969 15.339844 29.585938 15.3125 29.625 15.273438 C 29.871094 15.429688 30.132812 15.566406 30.402344 15.691406 C 30.347656 15.726562 30.304688 15.773438 30.269531 15.824219 C 30.125 15.988281 30.066406 16.199219 29.976562 16.394531 C 29.859375 16.539062 29.726562 16.679688 29.609375 16.824219 C 29.222656 17.316406 28.859375 17.84375 28.339844 18.207031 C 28.085938 18.390625 27.867188 18.636719 27.597656 18.820312 C 27.566406 18.746094 27.53125 18.675781 27.496094 18.609375 C 27.75 17.988281 28.160156 17.4375 28.546875 16.890625 C 28.679688 16.632812 28.824219 16.375 28.949219 16.109375 C 29.082031 15.828125 29.199219 15.503906 29.496094 15.363281 Z M 26.820312 16.226562 C 26.953125 15.9375 27.09375 15.652344 27.269531 15.386719 C 27.625 15.054688 27.90625 14.660156 28.222656 14.292969 C 28.296875 14.207031 28.371094 14.117188 28.445312 14.03125 C 28.609375 14.351562 28.828125 14.625 29.078125 14.855469 C 29.074219 14.859375 29.070312 14.867188 29.070312 14.871094 C 28.875 15.34375 28.429688 15.652344 28.101562 16.03125 C 27.789062 16.261719 27.488281 16.511719 27.175781 16.738281 C 26.941406 16.898438 26.683594 17.015625 26.46875 17.199219 C 26.515625 16.855469 26.6875 16.542969 26.820312 16.226562 Z M 26.039062 16.738281 C 26 16.824219 25.953125 16.910156 25.914062 17.003906 C 25.863281 16.980469 25.8125 16.960938 25.761719 16.9375 C 25.847656 16.867188 25.941406 16.800781 26.039062 16.738281 Z M 26.039062 16.738281 " fill-opacity="1" fill-rule="nonzero"/></g></g></g></svg>