<svg xmlns="http://www.w3.org/2000/svg" xmlns:xlink="http://www.w3.org/1999/xlink" width="54" zoomAndPan="magnify" viewBox="0 0 40.5 43.499999" height="58" preserveAspectRatio="xMidYMid meet" version="1.0"><defs><clipPath id="e062fac244"><path d="M 17.972656 21.308594 L 21.679688 21.308594 L 21.679688 25.011719 L 17.972656 25.011719 Z M 17.972656 21.308594 " clip-rule="nonzero"/></clipPath><clipPath id="8f901e3d55"><path d="M 0.972656 0.308594 L 4.679688 0.308594 L 4.679688 4.011719 L 0.972656 4.011719 Z M 0.972656 0.308594 " clip-rule="nonzero"/></clipPath><clipPath id="5993ed6c30"><rect x="0" width="5" y="0" height="5"/></clipPath><clipPath id="3145204bc8"><path d="M 1 2 L 38 2 L 38 41 L 1 41 Z M 1 2 " clip-rule="nonzero"/></clipPath><clipPath id="37e930227d"><path d="M 2.726562 0.0195312 L 39.683594 2.535156 L 36.96875 42.449219 L 0.0117188 39.933594 Z M 2.726562 0.0195312 " clip-rule="nonzero"/></clipPath><clipPath id="04f9d4948a"><path d="M 2.726562 0.0195312 L 39.683594 2.535156 L 36.96875 42.449219 L 0.0117188 39.933594 Z M 2.726562 0.0195312 " clip-rule="nonzero"/></clipPath><clipPath id="60ec0ace12"><path d="M 4 5 L 36 5 L 36 40 L 4 40 Z M 4 5 " clip-rule="nonzero"/></clipPath><clipPath id="ea385e7a23"><path d="M 2.726562 0.0195312 L 39.683594 2.535156 L 36.96875 42.449219 L 0.0117188 39.933594 Z M 2.726562 0.0195312 " clip-rule="nonzero"/></clipPath><clipPath id="f2a1818698"><path d="M 2.726562 0.0195312 L 39.683594 2.535156 L 36.96875 42.449219 L 0.0117188 39.933594 Z M 2.726562 0.0195312 " clip-rule="nonzero"/></clipPath></defs><g clip-path="url(#e062fac244)"><g transform="matrix(1, 0, 0, 1, 17, 21)"><g clip-path="url(#5993ed6c30)"><g clip-path="url(#8f901e3d55)"><path fill="#005ded" d="M 0.972656 0.308594 L 4.679688 0.308594 L 4.679688 4.011719 L 0.972656 4.011719 Z M 0.972656 0.308594 " fill-opacity="1" fill-rule="nonzero"/></g></g></g></g><g clip-path="url(#3145204bc8)"><g clip-path="url(#37e930227d)"><g clip-path="url(#04f9d4948a)"><path fill="#ffffff" d="M 8.523438 5.277344 C 7.605469 5.035156 6.449219 5.171875 5.882812 6.019531 C 5.511719 6.554688 5.53125 7.238281 5.558594 7.863281 C 5.628906 9.550781 6.382812 11.125 7.089844 12.632812 C 7.429688 13.371094 7.824219 14.082031 8.269531 14.757812 C 8.398438 15.082031 8.507812 15.410156 8.578125 15.75 C 8.65625 16.136719 8.609375 16.589844 8.53125 16.980469 C 8.433594 17.207031 8.289062 17.402344 8.113281 17.578125 C 6.347656 18.441406 4.558594 19.289062 3.191406 20.738281 C 1.964844 21.960938 1.082031 24.175781 2.898438 25.320312 C 4.804688 26.578125 7.1875 26.621094 9.390625 26.882812 C 10.585938 27.046875 13.023438 26.863281 12.800781 28.664062 C 12.667969 29.453125 12.386719 30.195312 12.148438 30.964844 C 11.546875 32.917969 10.886719 34.871094 10.527344 36.886719 C 10.195312 38.648438 10.605469 40.789062 12.722656 40.933594 C 12.738281 40.933594 12.757812 40.9375 12.773438 40.9375 C 15.175781 41.027344 16.585938 39.292969 17.824219 37.484375 C 18.535156 36.570312 19.542969 34.300781 20.722656 34.113281 C 20.996094 34.304688 21.136719 34.640625 21.34375 34.894531 C 21.503906 35.121094 21.667969 35.34375 21.835938 35.5625 C 22.714844 36.671875 23.714844 37.964844 25.175781 38.253906 C 27.140625 38.476562 28.632812 35.9375 28.785156 34.21875 C 28.988281 32.132812 28.003906 28.289062 29.226562 26.589844 C 30.433594 25.101562 33.828125 25.792969 36.214844 23.882812 C 38.011719 22.515625 38.421875 20.589844 36.519531 19.066406 C 35.261719 18.144531 33.765625 17.625 32.367188 16.960938 C 30.921875 16.242188 29.007812 15.730469 28.234375 14.1875 C 27.871094 13.402344 28.078125 12.523438 28.265625 11.71875 C 28.792969 9.867188 29.527344 8.003906 29.285156 6.039062 C 29.179688 5.089844 28.921875 4.078125 28.171875 3.429688 C 25.789062 1.589844 22.824219 5.453125 21.328125 7.035156 C 19.945312 8.378906 18.398438 10.648438 16.195312 10.195312 C 15.164062 9.886719 14.328125 9.140625 13.453125 8.539062 C 12.691406 7.96875 11.929688 7.347656 11.113281 6.734375 C 10.382812 6.179688 9.460938 5.515625 8.519531 5.277344 Z M 8.523438 5.277344 " fill-opacity="1" fill-rule="nonzero"/></g></g></g><g clip-path="url(#60ec0ace12)"><g clip-path="url(#ea385e7a23)"><g clip-path="url(#f2a1818698)"><path fill="#ffd21e" d="M 10.210938 24.464844 C 10.21875 24.464844 10.226562 24.464844 10.234375 24.464844 C 10.363281 24.554688 10.523438 24.601562 10.6875 24.574219 C 10.746094 24.566406 10.804688 24.558594 10.867188 24.546875 C 11.007812 24.75 11.21875 24.890625 11.472656 24.898438 C 11.671875 24.902344 11.863281 24.824219 12.019531 24.699219 C 12.109375 24.796875 12.226562 24.871094 12.367188 24.898438 C 12.558594 24.941406 12.730469 24.890625 12.882812 24.792969 C 12.898438 24.796875 12.910156 24.796875 12.925781 24.792969 C 13.007812 24.914062 13.113281 25.015625 13.253906 25.074219 C 13.496094 25.179688 13.808594 25.132812 14.011719 24.957031 C 14.019531 24.953125 14.027344 24.945312 14.035156 24.9375 C 14.050781 24.933594 14.0625 24.933594 14.078125 24.929688 C 14.144531 24.960938 14.210938 24.976562 14.28125 24.980469 C 14.328125 25.042969 14.390625 25.101562 14.460938 25.148438 C 14.625 25.261719 14.824219 25.289062 15.015625 25.238281 C 14.859375 25.464844 14.765625 25.742188 14.730469 26.011719 C 14.667969 26.5 14.574219 27.007812 14.582031 27.503906 C 14.582031 27.59375 14.59375 27.679688 14.613281 27.769531 C 14.613281 27.777344 14.609375 27.785156 14.609375 27.796875 C 14.589844 27.816406 14.570312 27.832031 14.550781 27.851562 C 14.304688 28.085938 14.164062 28.429688 14.132812 28.761719 C 14.121094 28.867188 14.121094 28.984375 14.132812 29.101562 C 14.078125 29.160156 14.03125 29.226562 13.988281 29.296875 C 13.886719 29.460938 13.820312 29.640625 13.777344 29.824219 C 13.695312 30.109375 13.632812 30.402344 13.589844 30.695312 C 13.566406 30.953125 13.613281 31.199219 13.660156 31.449219 C 13.628906 31.511719 13.601562 31.570312 13.582031 31.636719 C 13.539062 31.765625 13.511719 31.90625 13.511719 32.046875 C 13.433594 32.246094 13.382812 32.453125 13.332031 32.664062 C 13.269531 32.789062 13.207031 32.910156 13.164062 33.042969 C 13.078125 33.292969 13.074219 33.570312 13.070312 33.839844 C 13.050781 33.898438 13.035156 33.953125 13.015625 34.011719 C 12.972656 34.070312 12.9375 34.132812 12.90625 34.199219 C 12.792969 34.441406 12.742188 34.722656 12.714844 34.988281 C 12.699219 35.148438 12.710938 35.316406 12.75 35.472656 C 12.75 35.476562 12.75 35.480469 12.75 35.484375 C 12.730469 35.578125 12.714844 35.679688 12.707031 35.777344 C 12.691406 35.835938 12.683594 35.890625 12.671875 35.949219 C 12.632812 36.074219 12.589844 36.207031 12.5625 36.335938 C 12.53125 36.382812 12.507812 36.429688 12.484375 36.480469 C 12.21875 36.675781 12.027344 36.984375 11.929688 37.285156 C 11.777344 37.726562 11.78125 38.25 12.011719 38.664062 C 12.175781 38.957031 12.457031 39.167969 12.785156 39.191406 C 12.847656 39.195312 12.917969 39.191406 12.984375 39.179688 C 13.425781 39.109375 13.730469 38.753906 13.921875 38.375 C 14.023438 38.183594 14.078125 37.960938 14.097656 37.746094 C 14.105469 37.695312 14.105469 37.644531 14.105469 37.59375 C 14.175781 37.550781 14.242188 37.496094 14.300781 37.441406 C 14.53125 37.214844 14.65625 36.925781 14.707031 36.617188 C 14.808594 36.539062 14.910156 36.445312 14.988281 36.347656 C 15.050781 36.265625 15.105469 36.175781 15.152344 36.082031 C 15.25 35.894531 15.339844 35.703125 15.421875 35.507812 C 15.472656 35.386719 15.515625 35.269531 15.550781 35.152344 C 15.574219 35.132812 15.589844 35.109375 15.609375 35.089844 C 15.640625 35.050781 15.664062 35.011719 15.6875 34.972656 C 15.972656 34.871094 16.210938 34.589844 16.417969 34.402344 C 16.710938 34.132812 16.882812 33.699219 16.894531 33.269531 C 16.914062 33.257812 16.933594 33.246094 16.953125 33.230469 C 17.035156 33.167969 17.109375 33.097656 17.171875 33.019531 C 17.332031 32.839844 17.488281 32.660156 17.648438 32.480469 C 17.726562 32.382812 17.792969 32.277344 17.847656 32.164062 C 17.972656 31.863281 18.074219 31.550781 18.144531 31.230469 C 18.15625 31.175781 18.175781 31.121094 18.1875 31.070312 C 18.199219 31.011719 18.210938 30.953125 18.214844 30.894531 C 18.621094 30.726562 18.863281 30.28125 18.917969 29.835938 C 19.015625 29.75 19.097656 29.648438 19.160156 29.546875 C 19.257812 29.394531 19.332031 29.203125 19.359375 29.011719 C 19.371094 29.003906 19.386719 28.992188 19.402344 28.980469 C 19.628906 28.8125 19.757812 28.554688 19.867188 28.296875 C 19.894531 28.277344 19.921875 28.257812 19.949219 28.238281 C 20.207031 28.0625 20.371094 27.753906 20.445312 27.457031 C 20.464844 27.476562 20.484375 27.5 20.507812 27.519531 C 20.519531 27.707031 20.585938 27.871094 20.65625 28.042969 C 20.730469 28.222656 20.792969 28.410156 20.9375 28.546875 C 20.988281 28.59375 21.039062 28.628906 21.09375 28.652344 C 21.097656 28.660156 21.101562 28.667969 21.105469 28.679688 C 21.144531 28.746094 21.191406 28.804688 21.242188 28.859375 C 21.265625 29.175781 21.28125 29.582031 21.398438 29.878906 C 21.503906 30.140625 21.707031 30.355469 21.875 30.570312 C 21.9375 30.652344 22.007812 30.71875 22.09375 30.773438 C 22.085938 31.03125 22.136719 31.289062 22.265625 31.523438 C 22.394531 31.75 22.59375 31.925781 22.832031 31.996094 C 22.890625 32.238281 23.015625 32.453125 23.222656 32.597656 C 23.285156 32.640625 23.34375 32.683594 23.40625 32.726562 C 23.40625 32.726562 23.40625 32.730469 23.410156 32.730469 C 23.445312 32.804688 23.492188 32.863281 23.546875 32.914062 C 23.558594 32.945312 23.574219 32.972656 23.59375 33.003906 C 23.609375 33.289062 23.652344 33.574219 23.832031 33.804688 C 23.957031 33.96875 24.183594 34.335938 24.410156 34.484375 C 24.441406 34.507812 24.472656 34.523438 24.507812 34.539062 C 24.570312 34.714844 24.679688 34.871094 24.835938 34.953125 C 24.84375 34.960938 24.847656 34.96875 24.855469 34.976562 C 24.894531 35.25 25.003906 35.515625 25.242188 35.675781 C 25.460938 35.820312 25.738281 35.816406 25.96875 35.695312 C 26.5 35.410156 26.726562 34.628906 26.5 34.085938 C 26.453125 33.972656 26.410156 33.863281 26.335938 33.769531 C 26.304688 33.726562 26.269531 33.691406 26.234375 33.664062 C 26.234375 33.664062 26.234375 33.660156 26.234375 33.660156 C 26.234375 33.65625 26.238281 33.652344 26.238281 33.644531 C 26.277344 33.449219 26.277344 33.226562 26.214844 33.03125 C 26.210938 32.992188 26.210938 32.953125 26.207031 32.910156 C 26.183594 32.746094 26.125 32.601562 26.046875 32.460938 C 26.09375 32.339844 26.128906 32.210938 26.144531 32.070312 C 26.179688 31.707031 26.050781 31.382812 25.949219 31.035156 C 25.933594 30.976562 25.917969 30.921875 25.894531 30.871094 C 25.878906 30.640625 25.800781 30.414062 25.648438 30.253906 C 25.6875 29.949219 25.695312 29.636719 25.492188 29.382812 C 25.488281 29.378906 25.484375 29.375 25.484375 29.371094 C 25.601562 29.058594 25.613281 28.667969 25.472656 28.363281 C 25.492188 28.199219 25.484375 28.027344 25.445312 27.863281 C 25.414062 27.734375 25.355469 27.585938 25.265625 27.484375 C 25.230469 27.441406 25.191406 27.398438 25.152344 27.355469 C 25.140625 27.296875 25.125 27.242188 25.109375 27.191406 C 25.125 27.101562 25.136719 27.007812 25.148438 26.917969 C 25.179688 26.695312 25.199219 26.480469 25.144531 26.257812 C 25.109375 26.125 25.054688 25.996094 24.972656 25.882812 C 24.960938 25.875 24.953125 25.863281 24.945312 25.851562 C 24.933594 25.816406 24.921875 25.777344 24.910156 25.742188 C 25 25.511719 25.035156 25.261719 25.003906 25.007812 C 24.96875 24.742188 24.847656 24.464844 24.636719 24.296875 C 24.640625 24.21875 24.640625 24.136719 24.640625 24.058594 C 24.765625 23.941406 24.882812 23.816406 24.96875 23.671875 C 24.984375 23.652344 24.996094 23.628906 25.007812 23.605469 C 25.09375 23.617188 25.175781 23.625 25.257812 23.617188 C 25.355469 23.683594 25.457031 23.738281 25.566406 23.761719 C 25.6875 23.789062 25.828125 23.78125 25.945312 23.761719 C 26.195312 23.722656 26.375 23.570312 26.539062 23.398438 C 26.550781 23.402344 26.566406 23.410156 26.578125 23.417969 C 26.789062 23.507812 27.042969 23.46875 27.222656 23.335938 C 27.292969 23.335938 27.367188 23.324219 27.4375 23.304688 C 27.488281 23.292969 27.542969 23.277344 27.59375 23.265625 C 27.871094 23.570312 28.289062 23.652344 28.660156 23.453125 C 28.835938 23.359375 28.988281 23.214844 29.109375 23.046875 C 29.210938 23.019531 29.304688 22.964844 29.394531 22.890625 C 29.511719 22.910156 29.632812 22.886719 29.742188 22.832031 C 29.785156 22.871094 29.835938 22.902344 29.894531 22.925781 C 30.011719 22.976562 30.125 22.980469 30.25 22.96875 C 30.308594 22.964844 30.367188 22.957031 30.421875 22.953125 C 30.617188 22.933594 30.796875 22.800781 30.925781 22.65625 C 30.933594 22.65625 30.941406 22.652344 30.949219 22.652344 C 31.066406 22.691406 31.199219 22.691406 31.328125 22.652344 C 31.363281 22.640625 31.398438 22.628906 31.433594 22.617188 C 31.453125 22.632812 31.472656 22.648438 31.496094 22.667969 C 31.664062 22.800781 31.925781 22.808594 32.121094 22.742188 C 32.152344 22.730469 32.179688 22.71875 32.207031 22.707031 C 32.246094 22.742188 32.289062 22.773438 32.335938 22.804688 C 32.570312 22.964844 32.867188 22.996094 33.136719 22.902344 C 33.386719 22.8125 33.59375 22.632812 33.75 22.421875 C 33.863281 22.488281 33.992188 22.53125 34.125 22.53125 C 34.382812 22.539062 34.605469 22.414062 34.785156 22.246094 C 34.792969 22.238281 34.796875 22.234375 34.804688 22.226562 C 34.875 22.167969 34.949219 22.109375 35.019531 22.050781 C 35.28125 21.835938 35.4375 21.535156 35.46875 21.199219 C 35.5 20.914062 35.4375 20.542969 35.203125 20.347656 C 35.199219 20.34375 35.199219 20.34375 35.199219 20.339844 C 35.050781 20.167969 34.828125 20.050781 34.605469 20.070312 C 34.429688 20.011719 34.25 20.015625 34.074219 20.078125 C 34.050781 20.070312 34.027344 20.0625 34 20.058594 C 33.925781 20.039062 33.855469 20.027344 33.78125 20.023438 C 33.753906 20.023438 33.730469 20.023438 33.707031 20.027344 C 33.675781 20.007812 33.648438 19.992188 33.617188 19.976562 C 33.570312 19.898438 33.515625 19.820312 33.449219 19.757812 C 33.339844 19.652344 33.207031 19.59375 33.0625 19.578125 C 32.957031 19.503906 32.851562 19.429688 32.746094 19.359375 C 32.546875 19.222656 32.292969 19.199219 32.070312 19.277344 C 31.988281 19.304688 31.914062 19.34375 31.84375 19.394531 C 31.699219 19.296875 31.523438 19.296875 31.367188 19.351562 C 31.320312 19.332031 31.273438 19.320312 31.226562 19.3125 C 31.152344 19.199219 31.054688 19.101562 30.921875 19.046875 C 30.8125 18.996094 30.703125 18.988281 30.597656 19.007812 C 30.488281 18.847656 30.332031 18.722656 30.136719 18.679688 C 29.945312 18.640625 29.769531 18.683594 29.621094 18.773438 C 29.558594 18.753906 29.492188 18.746094 29.425781 18.75 C 29.265625 18.652344 29.082031 18.65625 28.898438 18.636719 C 28.863281 18.628906 28.828125 18.628906 28.789062 18.628906 C 28.753906 18.597656 28.714844 18.574219 28.671875 18.554688 C 28.550781 18.265625 28.285156 18.035156 27.964844 18.027344 C 27.835938 18.027344 27.714844 18.058594 27.609375 18.113281 C 27.53125 18.011719 27.457031 17.917969 27.382812 17.820312 C 27.183594 17.558594 26.875 17.414062 26.542969 17.464844 C 26.355469 17.496094 26.1875 17.589844 26.042969 17.710938 C 25.992188 17.699219 25.941406 17.6875 25.890625 17.679688 C 25.824219 17.566406 25.734375 17.46875 25.625 17.394531 C 25.5 17.316406 25.363281 17.269531 25.21875 17.265625 C 25.246094 17.109375 25.242188 16.949219 25.214844 16.792969 C 25.28125 16.664062 25.335938 16.53125 25.367188 16.386719 C 25.398438 16.238281 25.40625 16.085938 25.386719 15.9375 C 25.378906 15.871094 25.367188 15.8125 25.347656 15.753906 C 25.359375 15.664062 25.367188 15.574219 25.367188 15.488281 C 25.367188 15.472656 25.367188 15.457031 25.363281 15.445312 C 25.574219 15.214844 25.679688 14.902344 25.679688 14.589844 C 25.894531 14.296875 25.988281 13.902344 25.941406 13.546875 C 25.9375 13.511719 25.929688 13.476562 25.921875 13.4375 C 26.121094 13.230469 26.257812 12.957031 26.316406 12.675781 C 26.390625 12.339844 26.363281 11.980469 26.210938 11.675781 C 26.21875 11.648438 26.222656 11.621094 26.222656 11.589844 C 26.230469 11.515625 26.234375 11.441406 26.238281 11.363281 C 26.261719 11.316406 26.289062 11.269531 26.3125 11.222656 C 26.410156 11.042969 26.433594 10.824219 26.445312 10.609375 C 26.464844 10.582031 26.484375 10.554688 26.503906 10.527344 C 26.585938 10.394531 26.632812 10.25 26.683594 10.109375 C 26.757812 9.902344 26.78125 9.671875 26.753906 9.457031 C 26.75 9.429688 26.746094 9.402344 26.738281 9.375 C 26.769531 9.320312 26.792969 9.257812 26.8125 9.195312 C 26.875 9.015625 26.910156 8.804688 26.882812 8.605469 C 27.039062 8.390625 27.136719 8.152344 27.164062 7.878906 C 27.183594 7.671875 27.164062 7.464844 27.09375 7.273438 C 27.097656 7.253906 27.101562 7.230469 27.105469 7.207031 C 27.222656 7.050781 27.300781 6.859375 27.34375 6.675781 C 27.402344 6.390625 27.382812 6.074219 27.238281 5.816406 C 27.117188 5.59375 26.902344 5.429688 26.644531 5.425781 C 26.382812 5.417969 26.140625 5.574219 25.980469 5.777344 C 25.972656 5.789062 25.960938 5.800781 25.953125 5.816406 C 25.832031 5.847656 25.71875 5.894531 25.609375 5.976562 C 25.523438 6.039062 25.449219 6.113281 25.382812 6.195312 C 25.179688 6.433594 24.988281 6.679688 24.8125 6.9375 C 24.683594 7.140625 24.609375 7.375 24.585938 7.613281 C 24.582031 7.644531 24.582031 7.675781 24.578125 7.707031 C 24.542969 7.714844 24.507812 7.726562 24.476562 7.738281 C 24.355469 7.777344 24.226562 7.855469 24.140625 7.949219 C 23.992188 8.109375 23.847656 8.273438 23.699219 8.4375 C 23.585938 8.582031 23.515625 8.742188 23.464844 8.910156 C 23.4375 8.929688 23.410156 8.957031 23.382812 8.980469 C 23.1875 9.171875 23.078125 9.429688 23.035156 9.695312 C 22.992188 9.710938 22.945312 9.726562 22.898438 9.742188 C 22.6875 9.8125 22.515625 9.980469 22.402344 10.167969 C 22.277344 10.367188 22.214844 10.601562 22.179688 10.835938 C 22.101562 10.898438 22.03125 10.96875 21.980469 11.058594 C 21.964844 11.085938 21.949219 11.113281 21.933594 11.140625 C 21.644531 11.097656 21.328125 11.238281 21.121094 11.4375 C 20.851562 11.703125 20.703125 12.066406 20.664062 12.4375 C 20.589844 12.515625 20.515625 12.59375 20.445312 12.671875 C 20.359375 12.761719 20.289062 12.859375 20.230469 12.96875 C 20.152344 13.023438 20.082031 13.089844 20.023438 13.167969 C 19.863281 13.34375 19.71875 13.527344 19.585938 13.722656 C 19.539062 13.800781 19.5 13.878906 19.464844 13.964844 C 19.453125 13.992188 19.4375 14.019531 19.425781 14.046875 C 19.300781 14.128906 19.183594 14.210938 19.089844 14.328125 C 19.070312 14.355469 19.054688 14.378906 19.035156 14.402344 C 18.789062 14.480469 18.589844 14.679688 18.457031 14.90625 C 18.375 14.84375 18.285156 14.796875 18.183594 14.777344 C 18.148438 14.734375 18.109375 14.691406 18.0625 14.65625 C 17.941406 14.550781 17.804688 14.480469 17.640625 14.476562 C 17.605469 14.476562 17.566406 14.480469 17.53125 14.484375 C 17.503906 14.460938 17.476562 14.4375 17.441406 14.421875 C 17.421875 14.371094 17.398438 14.320312 17.375 14.273438 C 17.289062 14.117188 17.128906 13.953125 16.945312 13.929688 C 16.890625 13.925781 16.835938 13.917969 16.78125 13.914062 C 16.75 13.867188 16.71875 13.820312 16.675781 13.777344 C 16.671875 13.777344 16.671875 13.777344 16.671875 13.777344 C 16.652344 13.667969 16.617188 13.566406 16.5625 13.46875 C 16.402344 13.179688 16.0625 12.972656 15.832031 12.78125 C 15.65625 12.632812 15.457031 12.546875 15.21875 12.585938 C 15.164062 12.597656 15.109375 12.613281 15.054688 12.632812 C 15.042969 12.617188 15.03125 12.605469 15.019531 12.59375 C 14.988281 12.566406 14.957031 12.542969 14.925781 12.523438 C 14.882812 12.417969 14.816406 12.3125 14.734375 12.238281 C 14.628906 12.136719 14.503906 12.09375 14.359375 12.074219 C 14.332031 12.046875 14.296875 12.023438 14.265625 11.996094 C 14.191406 11.929688 14.121094 11.859375 14.03125 11.820312 C 13.953125 11.789062 13.863281 11.761719 13.777344 11.742188 C 13.773438 11.6875 13.769531 11.636719 13.761719 11.582031 C 13.722656 11.289062 13.589844 10.984375 13.332031 10.8125 C 13.140625 10.683594 12.886719 10.648438 12.667969 10.734375 C 12.664062 10.734375 12.660156 10.734375 12.65625 10.738281 C 12.640625 10.71875 12.621094 10.699219 12.605469 10.679688 C 12.441406 10.511719 12.339844 10.378906 12.148438 10.277344 C 12.121094 10.261719 12.097656 10.25 12.074219 10.238281 L 12.035156 10.128906 C 11.941406 9.890625 11.757812 9.6875 11.511719 9.621094 C 11.445312 9.234375 11.230469 8.863281 10.875 8.714844 C 10.617188 8.601562 10.363281 8.632812 10.136719 8.746094 C 10.117188 8.71875 10.09375 8.695312 10.066406 8.671875 C 10.054688 8.660156 10.039062 8.648438 10.027344 8.636719 C 9.992188 8.539062 9.949219 8.445312 9.902344 8.355469 C 9.863281 8.285156 9.816406 8.214844 9.761719 8.152344 C 9.621094 7.96875 9.414062 7.84375 9.175781 7.839844 C 9.121094 7.835938 9.0625 7.84375 9.007812 7.855469 C 8.96875 7.777344 8.917969 7.703125 8.847656 7.636719 C 8.695312 7.492188 8.507812 7.441406 8.3125 7.378906 C 8.132812 7.324219 7.917969 7.40625 7.777344 7.511719 C 7.597656 7.644531 7.472656 7.839844 7.402344 8.050781 C 7.289062 8.378906 7.296875 8.839844 7.546875 9.113281 C 7.484375 9.507812 7.550781 9.941406 7.796875 10.265625 C 7.953125 10.472656 8.199219 10.613281 8.457031 10.628906 C 8.507812 10.683594 8.566406 10.726562 8.632812 10.761719 C 8.640625 10.78125 8.644531 10.796875 8.652344 10.816406 C 8.679688 10.882812 8.714844 10.957031 8.765625 11.019531 C 8.734375 11.328125 8.792969 11.65625 8.984375 11.902344 C 9.105469 12.0625 9.273438 12.167969 9.457031 12.199219 C 9.464844 12.207031 9.472656 12.21875 9.484375 12.226562 C 9.5 12.292969 9.519531 12.355469 9.546875 12.417969 C 9.582031 12.511719 9.632812 12.597656 9.699219 12.671875 C 9.699219 12.734375 9.707031 12.792969 9.710938 12.859375 C 9.738281 13.082031 9.84375 13.355469 10.03125 13.515625 C 10.019531 13.792969 10.074219 14.074219 10.207031 14.308594 C 10.332031 14.539062 10.539062 14.722656 10.800781 14.78125 C 10.8125 14.78125 10.824219 14.785156 10.835938 14.785156 C 10.835938 15.199219 11 15.601562 11.386719 15.796875 C 11.414062 15.863281 11.453125 15.929688 11.496094 15.988281 C 11.582031 16.097656 11.691406 16.179688 11.816406 16.226562 C 11.851562 16.351562 11.917969 16.46875 12.015625 16.5625 C 12.035156 16.582031 12.054688 16.597656 12.078125 16.613281 C 12.066406 16.703125 12.070312 16.792969 12.082031 16.886719 C 12.121094 17.195312 12.292969 17.5 12.40625 17.773438 C 12.484375 17.949219 12.589844 18.113281 12.75 18.222656 C 12.835938 18.277344 12.929688 18.3125 13.03125 18.34375 C 13.039062 18.359375 13.050781 18.375 13.058594 18.390625 C 13.023438 18.414062 12.988281 18.445312 12.957031 18.476562 C 12.910156 18.488281 12.867188 18.503906 12.824219 18.527344 C 12.707031 18.589844 12.59375 18.660156 12.488281 18.742188 C 12.410156 18.734375 12.335938 18.746094 12.265625 18.765625 C 12.210938 18.75 12.152344 18.738281 12.089844 18.734375 C 12.003906 18.734375 11.917969 18.75 11.832031 18.765625 C 11.601562 18.804688 11.40625 18.941406 11.261719 19.125 C 11.164062 19.09375 11.066406 19.0625 10.972656 19.035156 C 10.714844 18.953125 10.410156 19.074219 10.207031 19.226562 C 10.011719 19.367188 9.839844 19.578125 9.746094 19.800781 C 9.734375 19.835938 9.71875 19.871094 9.703125 19.90625 C 9.667969 19.925781 9.632812 19.945312 9.601562 19.964844 C 9.570312 19.953125 9.539062 19.9375 9.511719 19.921875 C 9.242188 19.789062 8.917969 19.878906 8.6875 20.046875 C 8.511719 20.179688 8.375 20.359375 8.28125 20.558594 C 8.144531 20.574219 8.015625 20.660156 7.914062 20.761719 C 7.816406 20.789062 7.726562 20.84375 7.648438 20.914062 C 7.535156 20.855469 7.402344 20.828125 7.257812 20.851562 C 7.066406 20.882812 6.902344 20.992188 6.769531 21.128906 C 6.664062 21.160156 6.566406 21.21875 6.480469 21.292969 C 6.449219 21.285156 6.417969 21.28125 6.386719 21.28125 C 6.121094 21.277344 5.867188 21.433594 5.710938 21.640625 C 5.703125 21.652344 5.691406 21.664062 5.683594 21.679688 C 5.175781 21.578125 4.757812 22.121094 4.675781 22.566406 C 4.628906 22.824219 4.59375 23.074219 4.691406 23.324219 C 4.746094 23.464844 4.839844 23.621094 4.972656 23.699219 C 5.054688 23.746094 5.128906 23.792969 5.222656 23.8125 C 5.273438 23.824219 5.324219 23.828125 5.375 23.824219 C 5.503906 23.914062 5.660156 23.957031 5.824219 23.929688 C 5.90625 23.917969 5.988281 23.886719 6.058594 23.847656 C 6.0625 23.847656 6.066406 23.847656 6.070312 23.847656 C 6.128906 23.898438 6.191406 23.941406 6.257812 23.972656 C 6.375 24.019531 6.496094 24.023438 6.613281 24.007812 C 6.613281 24.011719 6.613281 24.011719 6.613281 24.011719 C 6.800781 24.402344 7.265625 24.59375 7.667969 24.453125 C 7.824219 24.402344 7.960938 24.3125 8.078125 24.199219 C 8.179688 24.300781 8.277344 24.390625 8.421875 24.46875 C 8.457031 24.488281 8.496094 24.507812 8.535156 24.519531 C 8.761719 24.613281 9.007812 24.589844 9.222656 24.476562 C 9.277344 24.449219 9.328125 24.414062 9.371094 24.375 C 9.433594 24.4375 9.503906 24.484375 9.585938 24.519531 C 9.804688 24.613281 10.023438 24.574219 10.210938 24.464844 Z M 11.398438 12.113281 C 11.382812 12.039062 11.355469 11.964844 11.324219 11.898438 C 11.460938 12.035156 11.578125 12.082031 11.78125 12.191406 C 11.8125 12.210938 11.84375 12.222656 11.875 12.238281 C 11.886719 12.335938 11.910156 12.433594 11.941406 12.527344 C 11.816406 12.328125 11.628906 12.171875 11.398438 12.113281 Z M 24.175781 29.964844 C 24.164062 29.929688 24.148438 29.894531 24.132812 29.859375 C 24.152344 29.878906 24.167969 29.894531 24.183594 29.910156 C 24.179688 29.925781 24.179688 29.945312 24.175781 29.964844 Z M 9.699219 22.460938 C 9.660156 22.40625 9.617188 22.355469 9.570312 22.308594 C 9.539062 22.277344 9.507812 22.25 9.472656 22.226562 C 9.628906 22.125 9.761719 21.984375 9.847656 21.828125 C 9.875 21.777344 9.902344 21.726562 9.929688 21.675781 C 9.960938 21.664062 9.996094 21.65625 10.027344 21.644531 C 10.042969 21.65625 10.058594 21.667969 10.078125 21.679688 C 10.296875 21.839844 10.59375 21.859375 10.84375 21.773438 C 11.128906 21.671875 11.335938 21.457031 11.5 21.210938 C 11.542969 21.148438 11.585938 21.082031 11.628906 21.019531 C 11.828125 21.050781 12.042969 21 12.222656 20.863281 C 12.300781 20.808594 12.378906 20.746094 12.449219 20.679688 C 12.503906 20.625 12.550781 20.566406 12.59375 20.503906 C 12.671875 20.457031 12.746094 20.398438 12.804688 20.328125 C 12.96875 20.292969 13.136719 20.261719 13.28125 20.179688 C 13.347656 20.175781 13.410156 20.167969 13.476562 20.144531 C 13.476562 20.144531 13.480469 20.144531 13.480469 20.140625 C 13.507812 20.152344 13.535156 20.160156 13.566406 20.167969 C 13.699219 20.195312 13.835938 20.183594 13.960938 20.140625 C 14.292969 20.023438 14.550781 19.699219 14.648438 19.371094 C 14.667969 19.308594 14.683594 19.253906 14.699219 19.191406 C 14.746094 19.113281 14.785156 19.027344 14.8125 18.9375 C 14.851562 18.820312 14.878906 18.703125 14.886719 18.582031 C 14.90625 18.246094 14.832031 17.855469 14.53125 17.65625 C 14.492188 17.632812 14.453125 17.609375 14.417969 17.59375 C 14.402344 17.566406 14.382812 17.539062 14.367188 17.515625 C 14.355469 17.464844 14.339844 17.414062 14.320312 17.363281 C 14.289062 17.285156 14.25 17.203125 14.203125 17.125 C 14.207031 16.914062 14.195312 16.703125 14.117188 16.5 C 14.007812 16.222656 13.769531 15.980469 13.59375 15.761719 C 13.488281 15.625 13.347656 15.523438 13.175781 15.484375 C 13.175781 15.484375 13.171875 15.484375 13.171875 15.484375 C 13.160156 15.429688 13.144531 15.378906 13.125 15.324219 C 13.085938 15.226562 13.027344 15.132812 12.949219 15.058594 C 12.953125 14.914062 12.929688 14.773438 12.875 14.636719 C 12.84375 14.554688 12.796875 14.472656 12.742188 14.402344 C 12.738281 14.367188 12.734375 14.332031 12.734375 14.300781 C 12.714844 14.050781 12.59375 13.785156 12.414062 13.613281 C 12.332031 13.535156 12.238281 13.480469 12.140625 13.449219 C 12.164062 13.210938 12.136719 12.96875 12.054688 12.746094 C 12.117188 12.847656 12.203125 12.9375 12.300781 13.003906 C 12.496094 13.132812 12.746094 13.164062 12.964844 13.085938 C 13.011719 13.066406 13.058594 13.046875 13.105469 13.03125 C 13.171875 13.132812 13.238281 13.242188 13.324219 13.324219 C 13.40625 13.402344 13.507812 13.464844 13.609375 13.527344 C 13.621094 13.550781 13.632812 13.574219 13.644531 13.601562 C 13.707031 13.726562 13.828125 13.839844 13.957031 13.894531 C 14.027344 13.925781 14.101562 13.9375 14.171875 13.9375 C 14.214844 13.980469 14.265625 14.015625 14.320312 14.039062 C 14.355469 14.339844 14.488281 14.632812 14.738281 14.804688 C 14.980469 14.972656 15.339844 15.324219 15.699219 15.335938 C 15.761719 15.335938 15.816406 15.328125 15.871094 15.3125 C 15.894531 15.324219 15.917969 15.335938 15.9375 15.34375 C 15.964844 15.355469 15.992188 15.363281 16.019531 15.371094 C 16.042969 15.421875 16.066406 15.46875 16.089844 15.515625 C 16.210938 15.753906 16.445312 15.875 16.683594 15.863281 C 16.710938 15.890625 16.738281 15.914062 16.765625 15.933594 C 16.808594 16.097656 16.890625 16.246094 17.007812 16.355469 C 17.082031 16.429688 17.175781 16.492188 17.273438 16.53125 C 17.332031 16.628906 17.40625 16.714844 17.5 16.785156 C 17.554688 16.839844 17.609375 16.898438 17.667969 16.953125 C 17.8125 17.222656 18.066406 17.429688 18.378906 17.425781 C 18.570312 17.425781 18.742188 17.363281 18.890625 17.25 C 18.972656 17.191406 19.042969 17.121094 19.109375 17.039062 L 19.25 16.820312 C 19.28125 16.792969 19.308594 16.765625 19.335938 16.738281 C 19.734375 16.589844 19.996094 16.207031 20.089844 15.796875 C 20.113281 15.773438 20.132812 15.75 20.152344 15.726562 C 20.253906 15.597656 20.320312 15.453125 20.382812 15.300781 C 20.433594 15.265625 20.488281 15.226562 20.539062 15.191406 C 20.609375 15.136719 20.675781 15.074219 20.730469 15.003906 C 20.886719 14.824219 21.03125 14.640625 21.164062 14.445312 C 21.191406 14.398438 21.214844 14.351562 21.234375 14.304688 C 21.367188 14.199219 21.453125 14.0625 21.546875 13.925781 C 21.585938 13.871094 21.625 13.816406 21.664062 13.761719 C 22.0625 13.714844 22.382812 13.375 22.546875 13.027344 C 22.664062 12.773438 22.730469 12.457031 22.707031 12.160156 C 22.730469 12.136719 22.753906 12.121094 22.777344 12.097656 C 22.855469 12.03125 22.910156 11.941406 22.960938 11.84375 C 23.027344 11.828125 23.089844 11.808594 23.15625 11.789062 C 23.519531 11.679688 23.746094 11.28125 23.824219 10.9375 C 23.835938 10.886719 23.847656 10.839844 23.859375 10.789062 C 24.132812 10.734375 24.347656 10.523438 24.484375 10.265625 C 24.707031 10.164062 24.863281 9.972656 25 9.773438 C 24.996094 9.808594 24.996094 9.84375 24.992188 9.882812 C 24.984375 10.042969 24.996094 10.207031 25.03125 10.359375 C 24.957031 10.535156 24.90625 10.710938 24.90625 10.914062 C 24.910156 10.980469 24.914062 11.050781 24.921875 11.121094 C 24.886719 11.210938 24.851562 11.304688 24.828125 11.394531 C 24.722656 11.492188 24.632812 11.609375 24.5625 11.722656 C 24.429688 11.9375 24.347656 12.1875 24.324219 12.441406 C 24.300781 12.667969 24.324219 12.925781 24.410156 13.152344 C 24.367188 13.210938 24.332031 13.277344 24.300781 13.347656 C 24.164062 13.628906 24.109375 14 24.191406 14.3125 C 24.078125 14.601562 24.042969 14.929688 24.148438 15.21875 C 24.132812 15.257812 24.117188 15.296875 24.101562 15.335938 C 24.089844 15.386719 24.070312 15.441406 24.058594 15.496094 C 23.992188 15.574219 23.9375 15.65625 23.890625 15.753906 C 23.773438 16.003906 23.761719 16.257812 23.773438 16.515625 C 23.585938 16.820312 23.492188 17.191406 23.5625 17.539062 C 23.546875 17.574219 23.535156 17.605469 23.523438 17.640625 C 23.3125 17.984375 23.25 18.425781 23.398438 18.804688 C 23.390625 18.890625 23.394531 18.976562 23.40625 19.058594 C 23.410156 19.097656 23.410156 19.136719 23.414062 19.179688 C 23.421875 19.402344 23.480469 19.636719 23.652344 19.796875 C 23.777344 19.917969 23.945312 19.964844 24.117188 19.941406 C 24.207031 19.929688 24.300781 19.917969 24.394531 19.902344 C 24.488281 19.890625 24.578125 19.855469 24.65625 19.808594 C 24.742188 19.84375 24.835938 19.867188 24.9375 19.871094 C 25.089844 19.875 25.234375 19.832031 25.367188 19.761719 C 25.445312 19.71875 25.519531 19.664062 25.589844 19.605469 C 25.664062 19.800781 25.785156 19.976562 25.96875 20.101562 C 26.1875 20.246094 26.480469 20.289062 26.726562 20.191406 C 26.851562 20.144531 26.976562 20.09375 27.105469 20.046875 C 27.21875 20.214844 27.386719 20.347656 27.585938 20.390625 C 27.828125 20.445312 28.046875 20.363281 28.230469 20.226562 C 28.273438 20.230469 28.316406 20.230469 28.355469 20.226562 C 28.382812 20.242188 28.410156 20.257812 28.441406 20.273438 C 28.613281 20.351562 28.785156 20.460938 28.976562 20.464844 C 28.984375 20.46875 28.992188 20.472656 29 20.480469 C 29.046875 20.511719 29.101562 20.53125 29.152344 20.550781 C 29.261719 20.734375 29.433594 20.882812 29.644531 20.929688 C 29.8125 20.964844 29.96875 20.9375 30.105469 20.867188 C 30.105469 20.871094 30.109375 20.875 30.113281 20.875 C 30.03125 20.902344 29.953125 20.941406 29.878906 20.992188 C 29.824219 21.035156 29.773438 21.085938 29.726562 21.136719 C 29.613281 21.113281 29.492188 21.136719 29.386719 21.183594 C 29.34375 21.164062 29.296875 21.144531 29.246094 21.132812 C 29.191406 21.121094 29.140625 21.121094 29.085938 21.125 C 28.929688 20.957031 28.71875 20.84375 28.480469 20.839844 C 28.09375 20.832031 27.761719 21.09375 27.558594 21.40625 C 27.546875 21.402344 27.535156 21.402344 27.523438 21.398438 C 27.410156 21.382812 27.304688 21.390625 27.207031 21.421875 C 26.992188 21.339844 26.742188 21.414062 26.566406 21.542969 C 26.550781 21.554688 26.539062 21.566406 26.523438 21.578125 C 26.417969 21.5 26.308594 21.433594 26.179688 21.40625 C 26.042969 21.375 25.917969 21.398438 25.78125 21.433594 C 25.648438 21.46875 25.535156 21.515625 25.425781 21.597656 C 25.359375 21.648438 25.300781 21.699219 25.242188 21.757812 C 25.15625 21.773438 25.070312 21.808594 24.988281 21.847656 C 24.886719 21.699219 24.75 21.574219 24.578125 21.5 C 24.320312 21.390625 24.035156 21.421875 23.789062 21.554688 C 23.453125 21.734375 23.222656 22.070312 23.101562 22.425781 C 23.035156 22.628906 23.003906 22.832031 23.007812 23.039062 C 22.820312 23.445312 22.835938 24.035156 23.121094 24.375 C 23.121094 24.382812 23.121094 24.386719 23.125 24.390625 C 23.144531 24.550781 23.207031 24.710938 23.269531 24.863281 C 23.148438 25.160156 23.117188 25.5 23.195312 25.800781 C 23.242188 25.992188 23.332031 26.171875 23.476562 26.308594 C 23.484375 26.316406 23.492188 26.324219 23.503906 26.332031 C 23.503906 26.375 23.503906 26.414062 23.511719 26.457031 C 23.492188 26.527344 23.476562 26.601562 23.46875 26.679688 C 23.453125 26.832031 23.460938 26.988281 23.496094 27.136719 C 23.550781 27.34375 23.671875 27.519531 23.777344 27.703125 C 23.78125 27.714844 23.792969 27.730469 23.800781 27.742188 C 23.804688 27.800781 23.808594 27.855469 23.816406 27.910156 C 23.8125 27.929688 23.804688 27.949219 23.800781 27.96875 C 23.699219 28.320312 23.679688 28.699219 23.863281 29.03125 C 23.867188 29.035156 23.867188 29.035156 23.867188 29.039062 C 23.859375 29.167969 23.871094 29.296875 23.90625 29.421875 C 23.917969 29.472656 23.933594 29.523438 23.953125 29.574219 C 23.835938 29.4375 23.683594 29.328125 23.515625 29.277344 C 23.464844 29.007812 23.335938 28.777344 23.21875 28.519531 C 23.15625 28.375 23.082031 28.242188 22.964844 28.128906 C 22.78125 27.972656 22.578125 27.839844 22.355469 27.734375 C 22.332031 27.664062 22.308594 27.59375 22.273438 27.53125 C 22.265625 27.519531 22.257812 27.507812 22.25 27.492188 C 22.246094 27.382812 22.226562 27.269531 22.179688 27.15625 C 22.105469 26.957031 21.953125 26.789062 21.824219 26.621094 C 21.765625 26.539062 21.683594 26.476562 21.59375 26.429688 C 21.550781 26.300781 21.5 26.171875 21.445312 26.046875 C 21.4375 26.03125 21.433594 26.015625 21.425781 26 C 21.421875 25.859375 21.398438 25.726562 21.347656 25.59375 C 21.296875 25.464844 21.214844 25.324219 21.105469 25.234375 C 21.039062 25.09375 20.949219 24.972656 20.820312 24.882812 C 20.707031 24.808594 20.597656 24.789062 20.46875 24.773438 C 20.066406 24.726562 19.71875 25.113281 19.566406 25.4375 C 19.480469 25.625 19.429688 25.824219 19.421875 26.023438 C 19.015625 26.148438 18.699219 26.582031 18.628906 27.003906 C 18.617188 27.050781 18.609375 27.097656 18.601562 27.140625 C 18.496094 27.277344 18.386719 27.421875 18.316406 27.574219 C 18.257812 27.695312 18.222656 27.824219 18.199219 27.960938 C 18.019531 28.074219 17.878906 28.273438 17.792969 28.453125 C 17.753906 28.535156 17.722656 28.621094 17.695312 28.714844 C 17.320312 28.933594 17.105469 29.425781 17.089844 29.867188 C 16.828125 30.007812 16.523438 30.355469 16.363281 30.511719 C 16.277344 30.597656 16.199219 30.691406 16.136719 30.792969 C 16.070312 30.90625 16.015625 31.019531 15.976562 31.144531 C 15.886719 31.378906 15.796875 31.617188 15.710938 31.851562 C 15.679688 31.933594 15.660156 32.019531 15.644531 32.105469 C 15.609375 32.117188 15.574219 32.136719 15.535156 32.15625 C 15.21875 32.324219 15.019531 32.636719 14.898438 32.964844 C 14.886719 32.996094 14.875 33.027344 14.863281 33.058594 C 14.863281 33.058594 14.863281 33.058594 14.863281 33.054688 C 14.910156 32.839844 14.957031 32.636719 14.976562 32.421875 C 14.980469 32.414062 14.984375 32.410156 14.984375 32.402344 C 15.050781 32.265625 15.09375 32.117188 15.105469 31.964844 C 15.113281 31.917969 15.113281 31.871094 15.113281 31.824219 C 15.171875 31.746094 15.222656 31.664062 15.273438 31.597656 C 15.386719 31.449219 15.472656 31.292969 15.535156 31.113281 C 15.613281 30.828125 15.6875 30.542969 15.75 30.25 C 15.757812 30.1875 15.769531 30.121094 15.78125 30.058594 C 15.800781 29.875 15.789062 29.6875 15.742188 29.507812 C 16.003906 29.121094 16.0625 28.578125 15.910156 28.148438 C 15.90625 28.140625 15.90625 28.132812 15.902344 28.121094 C 15.90625 28.113281 15.90625 28.105469 15.910156 28.09375 C 15.910156 28.09375 15.914062 28.09375 15.914062 28.089844 C 15.917969 28.085938 15.925781 28.078125 15.929688 28.070312 C 16.023438 27.953125 16.078125 27.828125 16.136719 27.6875 C 16.3125 27.273438 16.472656 26.851562 16.613281 26.421875 C 16.710938 26.136719 16.730469 25.8125 16.65625 25.523438 C 16.636719 25.449219 16.613281 25.378906 16.582031 25.3125 C 16.644531 25.242188 16.695312 25.15625 16.734375 25.070312 C 16.851562 24.824219 16.851562 24.574219 16.867188 24.304688 C 16.882812 24.082031 16.871094 23.871094 16.789062 23.660156 C 16.730469 23.511719 16.644531 23.367188 16.53125 23.257812 C 16.382812 23.117188 16.21875 23.0625 16.023438 23.042969 L 16.003906 23.039062 C 15.832031 23.027344 15.648438 23.085938 15.5 23.179688 C 15.484375 23.179688 15.46875 23.183594 15.453125 23.1875 C 15.433594 23.175781 15.414062 23.164062 15.398438 23.148438 C 15.140625 22.96875 14.828125 23.019531 14.582031 23.183594 C 14.515625 23.171875 14.445312 23.171875 14.371094 23.179688 C 14.359375 23.175781 14.347656 23.167969 14.332031 23.160156 C 14.164062 22.925781 13.917969 22.773438 13.609375 22.824219 C 13.460938 22.847656 13.335938 22.914062 13.226562 23.003906 C 13.214844 22.996094 13.199219 22.996094 13.183594 22.992188 C 13.035156 22.824219 12.832031 22.71875 12.582031 22.761719 C 12.492188 22.773438 12.40625 22.804688 12.332031 22.851562 C 12.214844 22.683594 12.042969 22.554688 11.851562 22.511719 C 11.605469 22.457031 11.375 22.546875 11.179688 22.691406 C 11.121094 22.664062 11.0625 22.636719 11 22.609375 C 10.851562 22.542969 10.691406 22.546875 10.546875 22.601562 C 10.539062 22.601562 10.53125 22.601562 10.527344 22.597656 C 10.34375 22.410156 10.082031 22.320312 9.804688 22.414062 C 9.765625 22.425781 9.730469 22.445312 9.695312 22.460938 Z M 9.699219 22.460938 " fill-opacity="1" fill-rule="nonzero"/></g></g></g></svg>